<svg xmlns="http://www.w3.org/2000/svg" viewBox="0 0 260 360"><g id="Layer_2" data-name="Layer 2"><g id="Layer_1-2" data-name="Layer 1"><polygon points="130 0 150 0 170 10 190 30 200 50 200 70 190 90 170 110 150 120 130 120 110 110 90 90 80 70 80 50 90 30 110 10 130 0"/><polygon points="140 50 260 50 140 0 140 50"/><polygon points="140 60 20 60 30 40 50 50 140 50 140 60"/><polygon points="20 330 0 360 240 360 260 330 20 330"/><polygon points="50 350 50 320 90 250 110 210 150 210 140 250 80 320 90 330 90 350 50 350"/><polygon points="120 210 150 250 170 320 170 350 210 350 210 330 200 320 200 260 170 210 120 210"/><polygon points="160 140 120 130 110 210 170 210 160 140"/><rect x="130" y="110" width="20" height="30"/><polygon points="120 130 100 180 90 230 110 240 120 190 140 140 120 130"/><polygon points="140 150 160 140 190 180 200 210 180 220 170 190 140 150"/></g></g></svg>