<svg xmlns="http://www.w3.org/2000/svg" viewBox="0 0 1152 648"><g id="Layer_2" data-name="Layer 2"><g id="Layer_6" data-name="Layer 6"><rect width="1152" height="648" fill="#e50000"/><path d="M1152,121.38V648H0V121.38c12.67,10.34,20.46,20.1,35.5,31.12,19.82,14.52,21,8.34,64,30,45.23,22.77,40.88,28.06,59.44,31.86,41.79-4.6,66.3-7.94,84.47-10.77l1.22-.19h0l1.59-.25c2.33-.37,4.55-.73,6.7-1.09l2.24-.37.18,0,2-.34c.36-.05.71-.11,1.07-.18l2.56-.43,1.65-.29,3.08-.53,6-1,1.09-.19c3.18-.55,6.38-1.1,9.72-1.65l1.41-.23.28-.05,2.19-.36.39-.06,3.71-.59,1.58-.25,3.1-.47,2.44-.37,1.67-.25,1.71-.25,1.74-.25.95-.14,2.51-.35,2-.28,2.31-.32,6.73-.89,2.73-.35,5.17-.65,2.23-.27,1.59-.2,7.17-.85q5.24-.62,11.05-1.26l2-.23,3-.34,2.45-.26,6.39-.69c49.45-5.27,171.94-17.12,207.32-44.94,2.94-2.31,11.11-9.32,23.49-11.23,20.1-3.1,26.76,11,45.9,11.52,16.07.39,15.76-9.47,58.2-30.88,18.87-9.52,17.38-6.79,42-19,23.43-11.62,25.86-14.64,34.71-14.78,12.67-.2,25.48,5.69,42.52,13.52,12,5.51,14.28,7.85,19.38,6.91,10.09-1.85,10.84-12.76,25.93-24.51,7.12-5.55,13.55-10.55,22.47-11.24,14-1.08,18.19,9.64,37.79,12.26a54.24,54.24,0,0,0,21.45-1C963.59,67.76,967.44,50.64,979,52c10.38,1.2,9.38,15.2,22.47,20.42,14.31,5.72,22.56-8.19,43.91-8.17,3.68,0,11.42.43,46,19.41q3.15,1.74,5.9,3.28l2.15,1.22.29.16,1.74,1c1.32.76,2.57,1.48,3.75,2.18l1.72,1,1.64,1,1.86,1.12c13.64,8.3,24.1,14.48,25.89,15.59A148.76,148.76,0,0,1,1152,121.38Z" fill="#c00"/><path d="M1152,91.11V648H0V91.11A186.43,186.43,0,0,1,26.17,70.36c9.23-6,18.48-12.57,29.64-16.7.31-.13.63-.24.95-.36a62.69,62.69,0,0,1,14.35-3.36c15.71-1.85,21.33,2.74,36.76-2,14.76-4.57,15.4-10.56,30.64-14.29,13.72-3.37,14.5,1.17,30.64-2.05,17.27-3.44,20.91-9.54,30.64-7.15,8.11,2,8.34,6.91,18.38,13.28,12.24,7.77,24.54,8.48,36.77,9.19,10.6.62,25.95,1.51,41.87-6.13,13.6-6.52,13.33-12.41,25.53-16.34,6.47-2.08,12.26-2.26,33.7,1,22.64,3.46,30,5.78,51.07,9.19,27.61,4.46,34.22,3.6,39.83,2,13.87-3.86,14-9.87,25.53-12.26,19.54-4,38.41,9.27,47,15.32,20.53,14.51,22.71,28,40.85,31.66,3.36.68,8,.8,17.36,1,14.71.36,24.33-.6,31.66-1a253.76,253.76,0,0,1,42.89,2.05C671.05,75.94,687.92,85,721.66,103c33.22,17.8,53.21,32.25,63.22,39.92,12.34,9.45,18.51,14.17,24.6,21.15,10.31,11.8,11.82,18.58,20.43,22.68,9.47,4.5,18.15-.5,29.62-1,13.59-.63,34.55-1.62,59.24-4.09,56.52-5.65,55.34-11.32,70.46-7.15,8.78,2.42,21,7.59,32.68,2,5.39-2.56,7.38-5.86,14.3-8.17.47-.15.93-.3,1.39-.42s.9-.25,1.35-.35.76-.18,1.13-.25l1.19-.2c7.29-1.18,13.67.3,17.41,1.22,15.78,1.88,29.51-10.45,47.82-26.9,21.37-19.2,19-25.74,44-49Z" fill="#b20000"/><path d="M1152,87.31V648H0V87.31c.39.28.73.54,1,.75,12.71,10,19.07,15,23.5,21.44,12.6,18.42,40.72,20.75,69,37,31.78,18.26,23.87,31.19,61,64,20.63,18.23,43.09,29.49,88,52,46.47,23.29,70.29,35,99,38,27.67,2.89,45-2.21,74-8,128.36-25.6,148.91,2.6,219.86-27.59,11.11-5.33,20.91-10,29.73-14.4,25.48-13.42,52.54-29.85,62.62-37.73l.66-.52c9.37-7.54,17.2-14.95,31.83-21.85,25.31-11.94,36.28-6,53.08-20,7-5.85,11.23-12,20.18-13.05,9.48-1.09,11.3,5.1,19.94,4.21,12.67-1.3,13.43-15.09,31.66-21.71,4-1.45,5.49-1.34,13.28-4.09s10-4.13,13.79-3.57c5,.73,6.34,3.95,10.21,5.62,4.45,1.91,11.89,1.61,25-8.17,10,7.59,18.65,7.8,22,7.66,9.54-.42,16.87-5.65,24-10.73,10.14-7.22,10.48-11,16.85-13.27,5.31-1.93,13.37-2.34,25.53,4.08,9.64-16.6,17.68-20.38,23.49-20.43,5.18,0,6.61,2.91,13.28,3.58,11.23,1.13,13.6-6.57,26-9.19,17.5-3.7,28.26,8.28,37.28,1,3.29-2.65,5.14-6.88,9.7-7.15a5.75,5.75,0,0,1,.93,0A11,11,0,0,1,1152,87.31Z" fill="#900"/><path d="M1152,180.74V648H0V180.74c9.05,4.65,16,12.31,49.5,28.76s35.15,12.94,60,27c27.43,15.52,29.3,22,50,29a135.51,135.51,0,0,0,50,7c3.46-.18,7.71-.55,40-8,29.09-6.71,43.87-10.15,55.44-14h0l4.19-1.83.1-.05c3.31-1.55,10.72-4.83,32.27-13.31l5.82-2.29c42.32-16.55,58.6-21,64-22.41,26.77-7.11,33.61-6.16,71.33-15.61,34.81-8.72,34.18-10.83,49.29-12.53,34.63-3.91,37.08,7.28,67.4,4.59,40.21-3.57,46.33-24.17,80.43-19.91,9.92,1.24,16.86,3.91,34.39,5,12.92.76,19.18-.1,36.33-.35,17.39-.25,26.14.41,40.13.8,40.79,1.14,46.78-2.25,98.25-2.34,28.22-.05,42.7,0,61.28,2.3,21.89,2.73,27.13,5.51,49.28,8.17,4.14.5,8.15.9,12,1.23a393.16,393.16,0,0,0,49.26.81c54.23-1.86,55-11.4,78.78-6.2A48.81,48.81,0,0,1,1152,180.74Z" fill="#7f0000"/><path d="M1152,399V648H0V399l1-.82a196.4,196.4,0,0,0,43,28.6c7.19,3.5,55.33,26.41,96.11,18.93,45.5-8.34,57.59-50.06,97.36-93.26,67.76-73.62,174.37-107.23,253.85-103.37,10.08.48,70.89,18.87,192.51,55.65,153,46.27,92.3,31.65,112.19,36.69C857.5,357,908.45,362.64,931.53,402.28a79.21,79.21,0,0,1,7.06,16,230.46,230.46,0,0,1,66.47,6.45c18.56,3.79,31.45,8.13,43.56,11.92,5.91,1.33,12.45,2.63,19.88,3.84,23.43,3.81,31.66,2.81,39-1,8.18-4.24,10.7-9.58,27-25C1141.56,407.82,1147.7,402.56,1152,399Z" fill="#600"/><path d="M1152,403.46V648H0V403.46q4.06.94,8.5,2c85.07,21,94,39.37,170,53,22.16,4,43.67,6.4,68.79,5.25h0c19.76-2.19,34.81-5.35,61-9.17l2.25-.33c5.5-.79,11.48-1.61,18.09-2.45l2-.26c4.58-.57,9.45-1.16,14.67-1.76l4.52-.51,2.32-.26,2.88-.31,9.65-1,3.37-.34c7.56-.76,15.7-1.53,24.51-2.32l5.05-.44c3.56-.31,7.23-.63,11-.94C500.71,436,629,429.75,700.11,395.35c43.79-21.19,60.24-33.82,60.24-33.82,26.7-20.49,33.73-35,56.36-41.25,16.11-4.45,18.85,1.82,53,3.87,55.84,3.34,69.26-7.69,101.11,2.3l1,.33.93.31.41.14c18.81,6.34,28.9,15.44,42.07,24.49,8.91,4.88,32,17.54,53.17,27.11q3.06,1.38,6,2.67C1103.83,394.14,1120.52,396.07,1152,403.46Z" fill="#4c0000"/><path d="M1152,395.4V648H0V395.47c.33-.71.67-1.39,1-2a112.57,112.57,0,0,1,6.79,15.26s0,.08,0,.12a93.28,93.28,0,0,1,4.34,15.66c.14.67.26,1.33.38,2L34,404.66l77.28.34,27.57,24.17a71.64,71.64,0,0,1,11.58-27.91c5.45-7.83,13.71-19.69,23.48-18.73,8.28.81,14.29,10.48,19.41,18.73a68.32,68.32,0,0,1,6.13,12.59h22.81l13.61,12.26q9.36-7.67,18.73-15.32l48-.34,11.91,9.87,10.21,1q.18,11.4.34,22.81l14.64-1.36,6.81-13.62,45.28,1c1-2.86,2.66-7.12,4.76-12.25,4.71-11.49,5.86-12.62,6.81-12.6.64,0,3.11.61,5.45,14.64,2.88-14,14.16-23.09,25.19-22.47,10.13.57,16.4,9.19,17.36,10.55a40.13,40.13,0,0,1,6.81-15.66c2.92-4,6-8.22,9.87-8.51,5.72-.42,12.35,7.64,15.66,20.09l7.15-1.36q9.19,8.5,18.38,17l10.22.34a85.9,85.9,0,0,1,3.4-14c2.34-7,3.5-10.48,5.45-10.89,2.65-.57,7.35,4.11,16.34,25.53q7,7.48,14,15a54.87,54.87,0,0,1,13.95,14A58.46,58.46,0,0,1,580,465.26a71.17,71.17,0,0,1,3.41,16.68c56.09,1.91,104.37,2.25,142.64,2,101.65-.57,149.93-5.2,194.72-12.6,12.51-2.06,22.85-4,30-5.44a163.05,163.05,0,0,0,18.38-16.34q4.68-4.86,8.51-9.54h-6.81q8.17-9.18,16.34-18.38l42.9.34,22.46,23.49,14-1q2-9.19,4.09-18.38l16-10.22,34.38.34,15.32,7.83a57.9,57.9,0,0,1,3.4-20.08,56.59,56.59,0,0,1,4.09-8.85,35.9,35.9,0,0,1,3.06,7.83c.11.4.21.8.29,1.2,0,.12.06.24.08.36.06.27.11.53.16.79s.11.56.15.84.07.39.09.58.08.5.11.75a67.3,67.3,0,0,1,2.53-7.93C1150.81,398.05,1151.4,396.67,1152,395.4Z" fill="#3f0000"/></g></g></svg>